<svg width="120" height="16" viewBox="0 0 120 16" fill="none" xmlns="http://www.w3.org/2000/svg">
<path d="M10.0294 9.51648H4.61799L3.68218 14.8872H0L2.58363 0.239818H12.7961L12.2265 3.41341H5.67585L5.16726 6.34289H10.5787L10.0294 9.51648Z" fill="black"/>
<path d="M20.1516 0.0974121C23.4201 0.0974121 25.0544 1.43331 25.0544 4.10509C25.0544 4.55265 25.0069 5.03412 24.912 5.54949L24.1999 9.6182C23.8744 11.5034 23.1692 12.9003 22.0842 13.809C20.9992 14.7177 19.4735 15.172 17.5069 15.172C15.5404 15.172 14.1706 14.7177 13.3975 13.809C12.8686 13.1851 12.6041 12.3239 12.6041 11.2253C12.6041 10.7371 12.6584 10.2014 12.7669 9.6182L13.4789 5.54949C14.1163 1.91477 16.3405 0.0974121 20.1516 0.0974121ZM18.0562 12.0187C18.7343 12.0187 19.2768 11.8424 19.6837 11.4898C20.0905 11.1372 20.3753 10.4862 20.5381 9.53683L21.2298 5.63086C21.2705 5.35961 21.2908 5.11549 21.2908 4.89849C21.2908 3.79994 20.7348 3.25066 19.6226 3.25066C18.2257 3.27779 17.3916 4.07119 17.1204 5.63086L16.4287 9.53683C16.3745 9.87589 16.3473 10.2285 16.3473 10.5947C16.3473 11.5441 16.9169 12.0187 18.0562 12.0187Z" fill="black"/>
<path d="M34.2306 0.239818C35.7767 0.239818 36.8753 0.578877 37.5262 1.257C38.0145 1.77237 38.2586 2.42336 38.2586 3.20998C38.2586 3.48123 38.2315 3.76603 38.1772 4.06441L37.8924 5.6512C37.7297 6.53276 37.4449 7.24478 37.038 7.78728C36.6447 8.32977 36.2039 8.7163 35.7157 8.94686L37.5669 14.8872H33.4575L31.7487 9.41476H30.4874L29.6533 14.8872H25.7473L28.331 0.239818H34.2306ZM32.9489 3.41341H31.4232L30.8942 6.95319H32.3183C33.0371 6.95319 33.5525 6.78366 33.8644 6.4446C34.1763 6.09198 34.3323 5.63086 34.3323 5.06124C34.3323 3.96269 33.8712 3.41341 32.9489 3.41341Z" fill="black"/>
<path d="M44.2447 15.172C42.3053 15.172 40.9626 14.7516 40.2167 13.9107C39.7013 13.3139 39.4436 12.4799 39.4436 11.4084C39.4436 10.9473 39.4911 10.4523 39.586 9.92335L40.4201 5.24433C41.0304 1.81305 43.2343 0.0974121 47.0318 0.0974121C48.605 0.0974121 49.7985 0.436472 50.6122 1.11459C51.426 1.77915 51.8329 2.69461 51.8329 3.86097C51.8329 4.40347 51.7515 4.94596 51.5887 5.48846C51.4395 6.01739 51.2904 6.4107 51.1412 6.66838L50.9174 7.07525H47.3166C47.7641 6.55988 47.9879 5.82752 47.9879 4.87815C47.9879 4.37634 47.8591 3.98303 47.6014 3.69822C47.3437 3.39985 46.964 3.25066 46.4622 3.25066C45.0924 3.25066 44.2786 4.01016 44.0209 5.52914L43.3089 9.63854C43.2411 9.99117 43.2072 10.337 43.2072 10.6761C43.2072 11.5712 43.7429 12.0187 44.8143 12.0187C46.1028 12.0187 46.8758 11.2932 47.1335 9.84198H50.7953L50.6936 10.4319C50.1511 13.592 48.0015 15.172 44.2447 15.172Z" fill="black"/>
<path d="M62.4819 14.8872H52.2694L54.8531 0.239818H65.0656L64.4959 3.41341H57.9453L57.4774 6.15979H62.8888L62.3192 9.33339H56.9078L56.5009 11.7136H63.0515L62.4819 14.8872Z" fill="black"/>
<path d="M74.8546 9.51648H69.4432L68.5074 14.8872H64.8252L67.4089 0.239818H77.6213L77.0517 3.41341H70.5011L69.9925 6.34289H75.4039L74.8546 9.51648Z" fill="black"/>
<path d="M83.3086 0.239818L80.7454 14.8872H77.0632L79.6468 0.239818H83.3086Z" fill="black"/>
<path d="M93.8317 14.8872H83.6192L86.2028 0.239818H96.4153L95.8457 3.41341H89.295L88.8271 6.15979H94.2385L93.6689 9.33339H88.2575L87.8507 11.7136H94.4013L93.8317 14.8872Z" fill="black"/>
<path d="M105.452 14.8872H96.175L98.7586 0.239818H102.42L100.406 11.7136H106.021L105.452 14.8872Z" fill="black"/>
<path d="M115.362 0.239818C117.138 0.239818 118.406 0.687376 119.166 1.58249C119.722 2.26061 120 3.10826 120 4.12544C120 4.49162 119.966 4.87815 119.898 5.28502L119.105 9.82164C118.834 11.3542 118.169 12.5816 117.111 13.5038C116.053 14.4261 114.684 14.8872 113.002 14.8872H107.082L109.665 0.239818H115.362ZM114.08 3.41341H112.758L111.313 11.7136H113.246C113.883 11.7136 114.378 11.5441 114.731 11.205C115.097 10.8524 115.348 10.2828 115.484 9.49614L116.074 6.15979C116.128 5.86142 116.155 5.59017 116.155 5.34605C116.155 4.05763 115.463 3.41341 114.08 3.41341Z" fill="black"/>
</svg>
